# Blender 4.3.2
# www.blender.org
o smk-kas1074-discobolus-decimated(1)
v -1.867843 -0.000000 0.344611
v -1.919092 8.642639 0.735029
v -1.364206 0.000000 0.917247
v -2.271220 8.470647 1.091490
v -2.397257 8.264523 1.200436
v -2.475702 8.132370 1.185680
v 2.608075 7.261677 0.133928
v -1.733877 0.000000 -0.913208
v 1.634230 0.000000 -1.009585
v 1.965170 0.000000 -0.500444
v -1.498391 -0.000001 -1.114812
v 1.838835 0.000000 0.795043
v 2.830633 6.908774 0.110585
v 2.548504 7.267871 0.076175
v -2.470371 8.135162 1.194903
v 2.636755 6.789012 0.771394
v -2.429099 8.276662 1.169899
v -2.476184 8.274836 0.955960
v 2.623065 7.075192 0.684869
v 0.274695 5.927715 -1.286058
v -2.416802 8.274775 1.186885
v 2.851105 6.926320 0.283446
v 2.046724 5.467383 -1.007962
v -1.590549 8.644797 0.573798
v 2.662972 7.255101 0.300025
v 2.679912 6.969113 -0.091766
v 2.725268 6.988105 -0.035357
vn 0.0621 -0.0776 0.9950
vn 0.5278 0.5806 -0.6199
vn -0.2475 0.5667 0.7858
vn -0.6409 0.1701 -0.7486
vn 0.8121 0.5285 -0.2475
vn -0.9923 -0.0651 -0.1057
vn -0.8440 -0.1172 0.5233
vn 0.8826 0.1743 0.4367
vn -0.6203 -0.6904 0.3723
vn -0.5960 0.3051 0.7428
vn -0.0000 -1.0000 -0.0000
vn 0.8372 -0.0540 -0.5442
vn 0.1522 -0.0112 -0.9883
vn -0.5269 0.7896 0.3145
vn -0.7343 0.6607 0.1560
vn 0.3118 0.6979 0.6448
vn 0.9833 -0.1512 -0.1011
vn 0.0764 -0.0236 0.9968
vn 0.0381 -0.0010 0.9993
vn 0.2473 0.4265 -0.8700
vn 0.1092 0.6114 -0.7837
vn 0.5919 0.5920 -0.5470
vn 0.1751 0.5398 -0.8234
vn 0.8678 -0.0653 -0.4926
vn 0.1660 0.2927 0.9417
vn 0.1813 0.3706 0.9109
vn -0.5536 0.1359 -0.8216
vn -0.4376 0.1282 -0.8900
vn -0.4709 0.2548 -0.8446
vn 0.7892 -0.0736 -0.6098
vn 0.0961 0.9953 0.0077
vn 0.7999 0.5238 -0.2928
vn 0.8546 0.4967 -0.1516
vn -0.9967 -0.0702 -0.0415
vn -0.7451 -0.1237 0.6553
vn 0.9210 -0.1069 0.3745
vn 0.8338 0.4619 0.3024
vn 0.7945 -0.0460 -0.6055
vn 0.0335 -0.0389 -0.9987
vn -0.9255 0.3209 0.2010
vn -0.8588 0.3211 0.3992
vn -0.5708 0.6613 0.4867
vn -0.5961 0.7733 -0.2158
vn 0.2648 0.7535 0.6017
vn 0.3325 0.9101 0.2474
vn 0.9866 -0.1321 0.0962
s 0
f 16//1 5//1 15//1
f 14//2 27//2 26//2
f 4//3 21//3 5//3
f 20//4 11//4 8//4
f 7//5 25//5 13//5
f 1//6 18//6 8//6
f 1//7 15//7 6//7
f 16//8 22//8 19//8
f 21//9 17//9 5//9
f 17//10 15//10 5//10
f 12//11 3//11 9//11
f 26//12 10//12 9//12
f 9//13 20//13 23//13
f 14//14 19//14 25//14
f 17//15 4//15 18//15
f 24//16 2//16 4//16
f 12//17 13//17 22//17
f 15//18 3//18 16//18
f 3//19 12//19 16//19
f 23//20 20//20 26//20
f 20//21 24//21 14//21
f 14//22 7//22 27//22
f 20//23 14//23 26//23
f 26//24 9//24 23//24
f 16//25 19//25 5//25
f 19//26 4//26 5//26
f 8//27 18//27 20//27
f 18//28 2//28 24//28
f 20//29 18//29 24//29
f 13//30 26//30 27//30
f 7//31 14//31 25//31
f 13//32 27//32 7//32
f 25//33 22//33 13//33
f 1//34 6//34 18//34
f 1//35 3//35 15//35
f 12//36 22//36 16//36
f 22//37 25//37 19//37
f 3//11 1//11 11//11
f 1//11 8//11 11//11
f 11//11 9//11 3//11
f 9//11 10//11 12//11
f 26//38 13//38 10//38
f 9//39 11//39 20//39
f 18//40 6//40 17//40
f 6//41 15//41 17//41
f 17//42 21//42 4//42
f 4//43 2//43 18//43
f 4//44 19//44 24//44
f 19//45 14//45 24//45
f 12//46 10//46 13//46
